<svg width="25" height="24" viewBox="0 0 25 24" fill="none" xmlns="http://www.w3.org/2000/svg">
<path d="M2 2.5H3.65424C4.13263 2.5 4.37183 2.5 4.56628 2.58674C4.73771 2.66321 4.88415 2.78638 4.98886 2.94217C5.10763 3.11888 5.14862 3.35454 5.23058 3.82585L5.6087 6M5.6087 6L6.49173 11.0774C6.67091 12.1077 6.7605 12.6228 7.02583 12.9939C7.25945 13.3207 7.58606 13.5695 7.96311 13.708C8.39133 13.8654 8.91176 13.815 9.95264 13.7143L19.614 12.7793C20.6298 12.681 21.1378 12.6318 21.5221 12.4033C21.8653 12.1993 22.1395 11.8972 22.3095 11.536C22.5 11.1314 22.5 10.6211 22.5 9.6005V9.6005C22.5 8.51582 22.5 7.97348 22.2922 7.55394C22.1068 7.17971 21.809 6.8729 21.4404 6.67654C21.0272 6.4564 20.4851 6.44036 19.4009 6.40826L5.6087 6Z" stroke="#698B6B" stroke-width="2.2" stroke-linecap="round" stroke-linejoin="round"/>
<circle cx="9.5" cy="19" r="2" stroke="#698B6B" stroke-width="2.2"/>
<circle cx="19" cy="19" r="2" stroke="#698B6B" stroke-width="2.2"/>
</svg>
